<svg xmlns="http://www.w3.org/2000/svg" xmlns:xlink="http://www.w3.org/1999/xlink" xmlns:sketch="http://www.bohemiancoding.com/sketch/ns" width="298px" height="248px" viewBox="0 0 298 248" version="1.1"><!-- Generator: Sketch 3.3 (11970) - http://www.bohemiancoding.com/sketch --><title>logo_temptacio</title><desc>Created with Sketch.</desc><defs><path d="M81.2259392 126.2 C77.8397314 116.4 76 105.9 76 95 C76 42.5 118.5 0 171 0 C223.467051 0 266 42.5 266 95 C266 147.5 223.5 190 171 190 C142.355473 190 116.7 177.3 99.3 157.3 L121 149.6 C148 142 161.7 128.2 168.7 121 C175.8 113.7 182.7 106.4 188.1 98.2 C191.5 95.2 197.2 91.2 199.8 88.4 C198.6 84.6 190.9 81.1 181.1 91 C176.3 95 168.9 100.2 168.9 100.2 C157.4 109.5 157.4 109.5 149 112.1 L164.3 82.5 C166 79.5 170.8 74.1 176.7 71.7 C181.8 69.7 188.2 77.2 194.8 78.7 C208.9 79 211 68.3 209.9 67.1 L196.9 68.9 C190.8 67.9 184.3 58.3 178 58.7 C169.9 59.1 148.1 72.6 148 71.8 C148.1 69 155.5 61.1 158 60.1 C164.4 57.7 176.6 53.4 180.5 52.5 C184.7 51.6 201.6 43.8 193.8 32.3 L185.9 38.5 C169.4 48.9 157.6 43.3 139.8 57.1 C137.1 60.1 131.6 66.1 131.1 64.9 C135.4 57.4 139.3 51.2 151.6 48.2 C151.6 48.2 159.8 45.8 162.3 44.5 C172.7 39.4 176.6 32.5 172.1 24.6 L159.8 34.6 C151.5 38.5 150.3 37.6 142.8 39.6 C135.5 41.6 125.7 44.9 121 49.9 C119.6 51.4 119.2 53.4 118.1 55.5 C116.1 59.5 114.3 67.7 112.1 66.9 C110.9 64.8 110.8 62.2 110.8 60.8 C111.4 57.2 112 55.3 112.5 53.3 C113.5 49.4 115.4 47.4 116.8 45.8 C117.7 44.8 130.9 34.6 122.1 28.2 C120.9 29.4 113.1 37.5 113.1 37.5 C105 43.9 101.8 50.8 98.6 60.1 C98.2 67.7 106.5 83.4 97 106.6 C97 106.6 89.1 123 82.3 125.6 C82.3 125.6 81.9 125.8 81.2 126.2 Z M210.5 150.4 C215.5 136.8 204.1 133.2 194.8 135.4 L192.5 135 C174.6 131.9 173.4 150.3 187.6 161.4 C190.9 163.9 192.4 160.7 198.3 161.8 C204.7 161.3 209 154.6 210.5 150.4 Z M205.3 96.5 L205.2 81 C204.4 80.7 199 82.3 198.3 82.4 C199.6 85 200.7 83 201.7 87.5 C204 93.7 199.5 112 198.5 117.8 C196.5 129.6 194.3 134 194.3 134 C194.7 135.8 197.8 130.5 201.4 117.6 L204.8 99.9 C204.3 102.3 219.6 131.4 225 130.2 L205.3 96.5 Z M245 138.6 C245.1 121 232.1 126.1 225.9 130.2 L223.7 130.6 C206.5 133.7 211.3 149.6 227.9 155 C230.6 155.9 231.4 153.9 238.7 152.6 C244.2 150.1 245 142.9 245 138.6 Z" id="path-1"/></defs><g id="Page-1" stroke="none" stroke-width="1" fill="none" fill-rule="evenodd" sketch:type="MSPage"><g id="logo_temptacio" sketch:type="MSLayerGroup"><path d="M267.380847 203.3 C266.782056 209.8 256.2 212.3 255.6 212.4 C255.345161 205.3 261.2 200.6 267.4 203.3 Z M84.03125 163 C85.2887097 162.9 86.5 162.7 87.8 162.6 C89.1209677 164.7 95.3 160.5 94.9 164.9 C90.3784274 165.4 90.5 165.8 88 168.1 C89.8395161 170.2 91.2 166.2 93 168.3 C84.6899194 173.1 69.4 172.7 60.4 176.9 C46.846371 201.8 34.1 226.2 33.2 237.9 C29.7209677 238.3 30.1 235.4 26.8 235.4 C24.7510081 230.8 27.7 222 28.3 217.2 C29.0024194 212.6 28.7 212.7 30.9 208.2 C35.1699597 199.6 39.7 190.6 41.9 181.1 C39.6608871 180 40.1 182.2 39.4 180.1 C21.6372984 182.3 -2.6 189.4 10.3 208.3 C7.7453629 209.5 2.9 206 1.3 202.9 C1.15866935 201.4 1 199.7 0.9 198.2 C9.48185484 170.7 54.8 173.2 84 163 Z M52.9540323 179.4 C51.1576613 187.7 41 200.4 40.9 209.5 C44.4512097 197.6 53.5 190.3 55.8 177.4 C54.5108871 178 51.2 177 51.3 178.8 C51.8163306 178.8 53.1 178.7 53 179.4 L52.9540323 179.4 Z M32.05625 214.4 C33.7927419 210.2 38.2 205.6 34.8 202.2 C29.7209677 215.6 28 218.4 30.9 228.6 L32.05625 214.4 Z M28.5832661 232.2 C30.7987903 231.3 31.2 229.9 29.7 227.9 C28.1042339 229 27.7 230.4 28.6 232.2 Z M295.763508 195.5 C295.763508 196.3 292.4 201.4 292.4 202.2 C287.380444 204.5 287.5 208.9 282.1 204.9 C286.721774 196.6 291 196.7 295.8 195.5 Z M243.309476 208.5 C242.531048 216.7 235.8 222.8 227.4 220.4 C229.776815 216.5 235.2 215.9 237.3 211.7 C227.920565 207.9 219.8 218.6 216.1 226 C224.208065 239 248.5 221.9 255.5 215.6 C254.027823 224.4 246.5 226.9 245.6 236.2 C245.824395 239.7 253.1 236.6 253.2 237.8 C253.54879 245 238.9 243.7 238.1 238.6 C238.1 235.5 239.8 234 240.4 231.5 C229.237903 233.9 215.3 242.4 208.6 231.6 C202.352218 233.6 199.6 239.1 191.2 238.8 C190.915323 236.9 190 235.8 190.4 233.3 C184.927419 234.8 179.1 239.8 172.2 237.3 C172.472581 231.6 176.7 224.7 182 219.8 C188.879435 213.4 201.8 203.5 208.5 209.5 C207.382056 214.4 203.2 214.7 200.1 211.8 C193.190726 216.5 184.1 218.9 183.5 230.1 C193.130847 229.8 193 219.4 203.2 219.8 C203.310282 225.2 199 225.9 197.9 230.1 C201.034879 232.2 204.7 228.2 207.7 227.7 C209.956855 226.5 210.1 223.3 211.5 221.3 C221.333871 208 231 202.6 243.3 208.5 Z M291.452218 216.3 C290.853427 218.1 289.9 219.5 290 221.9 C291.392339 224 295.6 219.4 297.5 221.9 C296.122782 225 286.4 232.1 280.8 227.7 C280.374597 234.8 263.1 241.5 254.3 233.1 C255.644556 216.4 282.1 198.8 291.5 216.3 Z M260.434879 229.1 C265.524597 233 272.9 230.1 277.1 226.7 C272.290927 224.3 276.1 215.7 274 214 C269.117339 218.6 260.9 219.8 260.4 229.1 L260.434879 229.1 Z M285.404435 215.6 C283.24879 219.6 282.5 216 279.4 215.6 C274.865726 225.2 289.9 224.8 285.4 215.6 Z M128.760887 245.8 C127.98246 245.8 126.1 247.6 125.3 247.6 C121.575403 242.4 135.6 231.8 134 228.9 C130.4375 231.2 121.1 237.8 117.3 233 C117.024597 228.5 123.4 226.7 121 222.6 C114.928831 224.6 111.6 233.1 105.2 232.2 C105.946976 225.3 111.8 223.8 112.7 217.1 C101.875202 219.8 96.7 232.5 87 233.8 C89.3604839 226.5 96.5 220.1 96 212.4 C88.1030242 223.6 63.1 241 50.6 223.6 C54.0917339 209.3 70.9 197.3 87.6 204.5 C82.9534274 214.7 70.8 217 59.6 220.4 C60.3790323 224.5 65 224.2 67.9 224.4 C83.8516129 225.4 88.1 210.8 101.2 206.9 C101.935081 209 102.7 213.6 101.2 215.6 C107.443952 215.1 112.2 209.3 117.9 210.8 C119.359879 211.7 118.8 216.9 117.9 217.9 C120.856855 217.1 124.7 213.8 128.5 216.3 C128.461492 221.6 125.8 224 124.7 228.2 C142.712702 229 141.5 209.9 152.7 203.5 C153.910081 208.3 149.7 211.4 151.2 213.8 C154.389113 211.7 156.7 208.5 161.8 208.3 C164.508669 224.6 155.1 230.2 145.3 236 C142.533065 236 141 232.7 139.4 231.5 C135.527218 235.9 129.5 239.9 128.8 245.8 Z M59.6604839 215.6 C68.2231855 215.1 75 212.7 79.4 207.7 C73.4326613 202 63.3 211.2 59.7 215.6 L59.6604839 215.6 Z M144.509073 225 C149.538911 224.9 145.1 227.4 145.9 230.1 C154.029839 228.3 156.8 222.8 158.9 214.7 C151.395161 215.2 146.7 218.8 144.5 225 Z M186.484274 198.7 C186.544153 203.5 180.3 206.3 178.2 211.5 C181.634073 212 182.9 212.3 186.5 212.9 C186.005242 217.7 179.7 218.9 175.1 216.9 C170.436694 223.4 165.8 229.9 160.7 235.9 C163.550605 237.8 165.8 232.3 170.6 233.6 C168.16129 238.2 163.4 240.3 157.7 241.5 C156.125605 235.2 161.1 228 163.7 223.3 C169.179234 213.5 178.7 206 184.9 197.1 C186.364516 196.3 185.4 201.6 186.5 198.7 Z" id="temptacio" fill="#5B1206" sketch:type="MSShapeGroup"/><mask id="mask-2" sketch:name="mano" fill="white"><use xlink:href="#path-1"/></mask><use id="mano" fill="#5B1206" sketch:type="MSShapeGroup" xlink:href="#path-1"/></g></g></svg>