<svg display="none" width="0" height="0" xmlns="http://www.w3.org/2000/svg">

  <symbol id="icon-download" viewBox="0 0 122 20">
    <path d="M107.581465,1.83770304 L107.581465,15.8074871 L109.288571,15.1003803 L104.715747,10.5275554 C104.325222,10.1370312 103.692057,10.1370312 103.301533,10.5275554 C102.911009,10.9180797 102.911009,11.5512447 103.301533,11.941769 L107.874358,16.5145938 C108.504323,17.1445587 109.581465,16.6983919 109.581465,15.8074871 L109.581465,1.83770304 C109.581465,1.28541829 109.133749,0.837703045 108.581465,0.837703045 C108.02918,0.837703045 107.581465,1.28541829 107.581465,1.83770304 L107.581465,1.83770304 Z"></path>
    <path d="M108.00864,1.83770304 L108.00864,15.8074871 C108.00864,16.6983919 109.085782,17.1445587 109.715747,16.5145938 L114.288571,11.941769 C114.679096,11.5512447 114.679096,10.9180797 114.288571,10.5275554 C113.898047,10.1370312 113.264882,10.1370312 112.874358,10.5275554 L108.301533,15.1003803 L110.00864,15.8074871 L110.00864,1.83770304 C110.00864,1.28541829 109.560924,0.837703045 109.00864,0.837703045 C108.456355,0.837703045 108.00864,1.28541829 108.00864,1.83770304 L108.00864,1.83770304 Z"></path>
    <path d="M97.0661441,15.3576494 C98.3340121,18.6681713 99.5931386,19.762608 103.182146,19.7626078 C104.422812,19.7626077 106.482523,19.7655909 109.132212,19.7708409 C109.767896,19.7721005 110.428598,19.7734738 111.108676,19.7749432 C112.357665,19.7776419 113.612685,19.7805334 114.812245,19.7834249 C115.487373,19.7850634 115.487373,19.7850634 115.953325,19.78622 C116.299315,19.7870874 116.299315,19.7870874 116.374638,19.7872801 C117.031073,19.7782722 117.917049,19.6057343 118.820554,19.1030504 C120.079542,18.4025862 120.950117,17.2300408 121.210928,15.565401 L119.235033,15.255824 C119.073081,16.2894921 118.586865,16.9443582 117.84818,17.3553412 C117.519687,17.5381048 117.159264,17.6604304 116.79766,17.7308503 C116.585238,17.772218 116.429474,17.7864581 116.363268,17.7873804 C116.30437,17.7870938 116.30437,17.7870938 115.95831,17.7862262 C115.492283,17.7850694 115.492283,17.7850694 114.817066,17.7834307 C113.61735,17.7805388 112.362166,17.777647 111.112998,17.7749479 C110.432804,17.7734782 109.771984,17.7721046 109.136175,17.7708448 C106.485207,17.7655923 104.424534,17.7626077 103.182146,17.7626078 C100.525144,17.7626079 99.9311088,17.246271 98.9338559,14.6423506 L97.0661441,15.3576494 L97.0661441,15.3576494 Z"></path>
  </symbol>

  <symbol id="logo" viewBox="0 0 84 44">
    <path d="M21.3,9.7 C18.8,10.5 17.2,11.3 15.7,12.1 C14.9,12.6 14,13.1 13.2,13.7 C12.4,14.2 11.6,14.8 10.8,15.5 C10.4,15.8 8.8,17 8.4,17.3 C7.7,18 5.1,20.4 4.6,21 C4.1,21.6 3.7,22.1 3.3,22.7 C2.9,23.3 2.4,23.8 2,24.3 C1.6,24.8 1.13780045,25.4538868 0.748801883,25.8143223 C1.24880188,25.0143223 3.2,21.9 3.2,21.6 C2.2,22.5 1.4,23.8 0.5,24.9 C0.624089857,24.4000004 1.8,22.8 2,22.5 C2.1,22.4 3.6,20.6 4.1,20 C4.4,19.6 4.8,19.1 5,18.6 C4.5,18.9 2.59999997,21.0999998 2.39999997,21.3999998 C2.39999997,21.1999998 2.7,20.5 2.9,20.4 C3.2,20.1 3.5,19.7 3.9,19.4 C4.6,18.8 5.2,17.9 5.9,17.2 C6.6,16.5 7.3,15.8 8,15.1 C8.3,14.8 9.8,13.6 10.2,13.3 C11.7,12.3 13.4,11.4 14.9,10.5 C15.7,10 16.6,9.5 17.4,9.1 C18.1,8.7 19.1,8.2 19.6,7.6 C18.9,7.5 17.8,8 17.3,8.3 C16.5,8.7 15.6,9.1 14.8,9.5 C14,9.9 13.2,10.5 12.5,11.1 C11.7,11.7 10.9,12.2 10.2,12.8 C8.9,14 7.2,15.1 6.2,16.6 C6,16.9 5.6,17.1 5.3,17.4 C5,17.7 1.9,21.4 1.4,22 C1.39999998,21.4000004 2.16173446,20.6394375 2.6,20 C3.09043217,19.4000004 5.9,16.4 6.5,15.7 C7,15.1 7.8,14.2 8.5,13.7 C10,12.4999998 12.3,10.8 13.1,10.3 C14.7,9.3 16.4,8.4 18.1,7.5 C19,7.1 19.9,6.7 20.7,6.3 C21.2,6.1 23,5.5 23.1,5 C22.8,5 22.5,5.1 22.2,5.1 C23.2,4.8 24.2,4.3 25.2,4.2 C25,4.4 23.4,5 23,5.1 C22.2,5.3 21.4,5.8 20.6,6 C19.7,6.3 18.8,6.8 17.8,7 C17.4,7.1 17,7.5 16.6,7.6 C16.1,7.8 13.8,8.9 13.1,9.4 C12.4,9.9 11.8,10.5 11.1,10.9 C10.3,11.3 7.7,13.5 7,14.2 C7.3,13.8 8.40000019,12.6 8.80000019,12.3 C9.40000019,11.8 11.6000002,9.89636328 12.4,9.4 C13.1999998,8.90363672 14.4,8.2 14.8,7.9 C15.5,7.4 16.4,7.1 17.2,6.6 C17.6,6.4 18,6.1 18.4,5.9 C18.8,5.7 19.2,5.5 19.6,5.3 C20.4,5 21.2,4.7 22,4.5 C22.8,4.2 22.9999991,4.37146464 23.3999991,3.87146464 C21.8004832,4.07266537 20.5,5 18.7,5.4 C18.94803,5.10000006 20.2,4.7 20.7,4.5 C21.6,4.2 22.5,3.8 23.4,3.6 C24.2,3.4 27.5,2 28.3,1.8 C28.7,1.7 32.5346685,0.860485834 35.5,0.4 C38.4653315,-0.0604858339 44.0819697,0.0788574226 45.9,0.3 C47.7180303,0.521142577 55,2 56.9,2.4 C57.8,2.6 58.5,2.7 59.3,3.1 C60.2,3.5 63.4,4.6 64,4.9 C64.6,5.2 69.2,7.8 69.9,8 C70.5,8.2 72.9,9.9 73.1,10.5 C73.2,10.7 73.6,11.5 73.7,11.7 C73.8,11.8 74.3,12.8 74.1,13.2 C73.3,13.2 75.4,16 75.7,16.4 C75.4,16.3 75.1,16.3 74.8,16.3 C74.3,16.3 74.1,16.1 74.4,16.7 C74.7,17.5 75.6,18.3 76.2,19 C76.5,19.4 77.8,20.7 77.9,21.1 C77.9,21.3 77.6072268,22.5000002 77.3935428,22.5000002 C76.9935428,22.2000002 75.6,21.4 75.3,21.4 C74.7,21.5 75.3,23.1 74.3,22.8 C72.7,22.2 67.2,18.5 65.9,18 C65,17.7 64.2,17.3 63.4,16.9 C62.6,16.5 61.9,16.2 61.1,15.8 C61.4,15.9 61.8,16 62.2,16.1 C62.6,16.2 65.1624789,17.4000004 65.487186,17.5999992 C65.252811,17.0864876 64.6,17 64.2,16.7 C64,16.5 62.8,16 62.5,15.8 C61.8,15.4 59.7,14.3 59.4,14.2 C59,14 58.5,13.9 58.3,13.5 C59.1,14 60,14.4 60.9,14.7 C61.7,15 62.4,15.5 63.2,15.7 C63.1,15.3 59.7,13.7 59.1,13.5 C57.8,12.9 56.4,12.3 54.9,11.8 C54.1,11.5 48.112251,10.3000002 47.1,10.1 C46.087749,9.89999977 45.2,9.9 44.2,9.8 C42.3,9.7 40.5,9.80000001 38.6,9.8 C34.8553004,9.79999997 28.8,10.9 27,11.6 C25.3,12.3 19.6,14.8 18.5,15.5 C17.3,16.2 16.1,17.1 14.9,17.9 C13.6,18.7 12.6,19.9 11.4,20.8 C10.8,21.3 10.1,21.8 9.5,22.4 C9.3,22.6 9.1,23.3 8.8,23.4 C10.2,22.2 14.5,18.8 15.1,18.3 C15.7,17.7 16.6,17 17.3,16.7 C18,16.3 18.7,15.8 19.4,15.4 C20.1,14.9 22.5000003,13.9 22.7000003,13.7 C22.9000003,13.5 24.3,12.3 24.3,12.3 C23.7,12.6 21,13.8 20.4,14.1 C18.9,14.8 17.5,15.8 16.1,16.7 C14.7,17.6 13.3,18.3 12.1,19.4 C10.9,20.5 9.3,21.4 8.3,22.8 C8.4,22.6 6.4,25.2 5,26.6 C4.3,27.3 3.8,28 3.3,28.8 C3,29.1 2.1,30 2.4,29.6 C2.7,29.2 4.5,26.9 5.1,26.1 C6.4,24.5 7.8,22.9 9.2,21.4 C11.9,18.6 15.3000003,15.7838985 18.7000003,13.8838985 C19.2376513,13.6999996 21,12.6 21.2,12.3 C21.1,12.7 17.0999997,14.5112884 16.2999997,15.0112884 C14.5999997,16.0112884 13.2,17.2 11.5,18.2 C9.9,19.2 8.8,20.7 7.4,21.9 C6.7,22.5 6.2,23.3 5.6,23.9 C5.5,24 4.9,24.9 4.8,25 C4.5,25.4 4.1,25.7 3.9,26.1 C4.3,25.6 4.6,24.9 5,24.4 C4.7,24.8 4.3,25.2 3.9,25.6 C4.1,24.9 6.4,22.2 6.9,21.6 C7.5,20.9 8.2,20.3 8.8,19.6 C9.2,19.2 10.1,18.5 10,17.9 C9.7,18.1 8.7,19 8.5,19.1 C8.5,19.1 9.5,17.9 9.7,17.7 C10,17.4 11.3,16.3 11.6,16 C11.7,15.8 12.1,15.4 12.2,15.2 C11.9,15.2 9.3424838,17.3999996 9.0424838,17.6999996 C8.7424838,17.9999996 6.8,20.2 6.1,20.8 C5.6,21.3 5.0999999,22.1445858 4.5999999,22.2445858 C5.2999999,20.8445858 11.4,15.4 11.6,15.1 C11.9,14.8 12.3,14.5 12.7,14.3 C13.1,14 13.4,13.7 13.8,13.5 C14.6,13 15.5,12.6 16.3,12.1 C17.1,11.6 18,11.3 18.8,10.8 C19.5,10.3 23.1,8.7 23.5,8.5 C24,8.3 25.7,8 25.8,7.4 C25.6,7.6 25.3,7.7 25,7.8 C25,7.8 21.1,9.3 20.3,9.7 L20.3,9.7 Z"></path>
    <path d="M20.3,9.7 C18.8,10.5 17.2,11.3 15.7,12.1 C14.9,12.6 14,13.1 13.2,13.7 C12.4,14.2 11.6,14.8 10.8,15.5 C10.4,15.8 8.8,17 8.4,17.3 C7.7,18 5.1,20.4 4.6,21 C4.1,21.6 3.7,22.1 3.3,22.7 C2.9,23.3 2.4,23.8 2,24.3 C1.6,24.8 1.13780045,25.4538868 0.748801883,25.8143223 C1.24880188,25.0143223 3.2,21.9 3.2,21.6 C2.2,22.5 1.4,23.8 0.5,24.9 C0.624089857,24.4000004 1.8,22.8 2,22.5 C2.1,22.4 3.6,20.6 4.1,20 C4.4,19.6 4.8,19.1 5,18.6 C4.5,18.9 2.59999997,21.0999998 2.39999997,21.3999998 C2.39999997,21.1999998 2.7,20.5 2.9,20.4 C3.2,20.1 3.5,19.7 3.9,19.4 C4.6,18.8 5.2,17.9 5.9,17.2 C6.6,16.5 7.3,15.8 8,15.1 C8.3,14.8 9.8,13.6 10.2,13.3 C11.7,12.3 13.4,11.4 14.9,10.5 C15.7,10 16.6,9.5 17.4,9.1 C18.1,8.7 19.1,8.2 19.6,7.6 C18.9,7.5 17.8,8 17.3,8.3 C16.5,8.7 15.6,9.1 14.8,9.5 C14,9.9 13.2,10.5 12.5,11.1 C11.7,11.7 10.9,12.2 10.2,12.8 C8.9,14 7.2,15.1 6.2,16.6 C6,16.9 5.6,17.1 5.3,17.4 C5,17.7 1.9,21.4 1.4,22 C1.39999998,21.4000004 2.16173446,20.6394375 2.6,20 C3.09043217,19.4000004 5.9,16.4 6.5,15.7 C7,15.1 7.8,14.2 8.5,13.7 C10,12.4999998 12.3,10.8 13.1,10.3 C14.7,9.3 16.4,8.4 18.1,7.5 C19,7.1 19.9,6.7 20.7,6.3 C21.2,6.1 23,5.5 23.1,5 C22.8,5 22.5,5.1 22.2,5.1 C23.2,4.8 24.2,4.3 25.2,4.2 C25,4.4 23.4,5 23,5.1 C22.2,5.3 21.4,5.8 20.6,6 C19.7,6.3 18.8,6.8 17.8,7 C17.4,7.1 17,7.5 16.6,7.6 C16.1,7.8 13.8,8.9 13.1,9.4 C12.4,9.9 11.8,10.5 11.1,10.9 C10.3,11.3 7.7,13.5 7,14.2 C7.3,13.8 8.40000019,12.6 8.80000019,12.3 C9.40000019,11.8 11.6000002,9.89636328 12.4,9.4 C13.1999998,8.90363672 14.4,8.2 14.8,7.9 C15.5,7.4 16.4,7.1 17.2,6.6 C17.6,6.4 18,6.1 18.4,5.9 C18.8,5.7 19.2,5.5 19.6,5.3 C20.4,5 21.2,4.7 22,4.5 C22.8,4.2 22.9999991,4.37146464 23.3999991,3.87146464 C21.8004832,4.07266537 20.5,5 18.7,5.4 C18.94803,5.10000006 20.2,4.7 20.7,4.5 C21.6,4.2 22.5,3.8 23.4,3.6 C24.2,3.4 27.5,2 28.3,1.8 C28.7,1.7 32.5346685,0.860485834 35.5,0.4 C38.4653315,-0.0604858339 44.0819697,0.0788574226 45.9,0.3 C47.7180303,0.521142577 55,2 56.9,2.4 C57.8,2.6 58.5,2.7 59.3,3.1 C60.2,3.5 63.4,4.6 64,4.9 C64.6,5.2 69.2,7.8 69.9,8 C70.5,8.2 72.9,9.9 73.1,10.5 C73.2,10.7 73.6,11.5 73.7,11.7 C73.8,11.8 74.3,12.8 74.1,13.2 C73.3,13.2 75.4,16 75.7,16.4 C75.4,16.3 75.1,16.3 74.8,16.3 C74.3,16.3 74.1,16.1 74.4,16.7 C74.7,17.5 75.6,18.3 76.2,19 C76.5,19.4 77.8,20.7 77.9,21.1 C77.9,21.3 77.6072268,22.5000002 77.3935428,22.5000002 C76.9935428,22.2000002 75.6,21.4 75.3,21.4 C74.7,21.5 75.3,23.1 74.3,22.8 C72.7,22.2 67.2,18.5 65.9,18 C65,17.7 64.2,17.3 63.4,16.9 C62.6,16.5 61.9,16.2 61.1,15.8 C61.4,15.9 61.8,16 62.2,16.1 C62.6,16.2 65.1624789,17.4000004 65.487186,17.5999992 C65.252811,17.0864876 64.6,17 64.2,16.7 C64,16.5 62.8,16 62.5,15.8 C61.8,15.4 59.7,14.3 59.4,14.2 C59,14 58.5,13.9 58.3,13.5 C59.1,14 60,14.4 60.9,14.7 C61.7,15 62.4,15.5 63.2,15.7 C63.1,15.3 59.7,13.7 59.1,13.5 C57.8,12.9 56.4,12.3 54.9,11.8 C54.1,11.5 48.112251,10.3000002 47.1,10.1 C46.087749,9.89999977 45.2,9.9 44.2,9.8 C42.3,9.7 40.5,9.80000001 38.6,9.8 C34.8553004,9.79999997 28.8,10.9 27,11.6 C25.3,12.3 19.6,14.8 18.5,15.5 C17.3,16.2 16.1,17.1 14.9,17.9 C13.6,18.7 12.6,19.9 11.4,20.8 C10.8,21.3 10.1,21.8 9.5,22.4 C9.3,22.6 9.1,23.3 8.8,23.4 C10.2,22.2 14.5,18.8 15.1,18.3 C15.7,17.7 16.6,17 17.3,16.7 C18,16.3 18.7,15.8 19.4,15.4 C20.1,14.9 22.5000003,13.9 22.7000003,13.7 C22.9000003,13.5 24.3,12.3 24.3,12.3 C23.7,12.6 21,13.8 20.4,14.1 C18.9,14.8 17.5,15.8 16.1,16.7 C14.7,17.6 13.3,18.3 12.1,19.4 C10.9,20.5 9.3,21.4 8.3,22.8 C8.4,22.6 6.4,25.2 5,26.6 C4.3,27.3 3.8,28 3.3,28.8 C3,29.1 2.1,30 2.4,29.6 C2.7,29.2 4.5,26.9 5.1,26.1 C6.4,24.5 7.8,22.9 9.2,21.4 C11.9,18.6 15.3000003,15.7838985 18.7000003,13.8838985 C19.2376513,13.6999996 21,12.6 21.2,12.3 C21.1,12.7 17.0999997,14.5112884 16.2999997,15.0112884 C14.5999997,16.0112884 13.2,17.2 11.5,18.2 C9.9,19.2 8.8,20.7 7.4,21.9 C6.7,22.5 6.2,23.3 5.6,23.9 C5.5,24 4.9,24.9 4.8,25 C4.5,25.4 4.1,25.7 3.9,26.1 C4.3,25.6 4.6,24.9 5,24.4 C4.7,24.8 4.3,25.2 3.9,25.6 C4.1,24.9 6.4,22.2 6.9,21.6 C7.5,20.9 8.2,20.3 8.8,19.6 C9.2,19.2 10.1,18.5 10,17.9 C9.7,18.1 8.7,19 8.5,19.1 C8.5,19.1 9.5,17.9 9.7,17.7 C10,17.4 11.3,16.3 11.6,16 C11.7,15.8 12.1,15.4 12.2,15.2 C11.9,15.2 9.3424838,17.3999996 9.0424838,17.6999996 C8.7424838,17.9999996 6.8,20.2 6.1,20.8 C5.6,21.3 5.0999999,22.1445858 4.5999999,22.2445858 C5.2999999,20.8445858 11.4,15.4 11.6,15.1 C11.9,14.8 12.3,14.5 12.7,14.3 C13.1,14 13.4,13.7 13.8,13.5 C14.6,13 15.5,12.6 16.3,12.1 C17.1,11.6 18,11.3 18.8,10.8 C19.5,10.3 23.1,8.7 23.5,8.5 C24,8.3 25.7,8 25.8,7.4 C25.6,7.6 25.3,7.7 25,7.8 C25,7.8 21.1,9.3 20.3,9.7 L20.3,9.7 Z" fill="#ec6608"></path>
    <path d="M13.5,32.2 C12.9,31.6 12.4,31.2 11.8,30.8 C11.4,30.6 11.2,30.4 11.1,30.4 C10.9,30.4 10.6,30.5 10.2,30.7 C9.5,31.1 8.9,31.5 8.2,32.2 C7.9,31.5 7.7,31.1 7.4,30.5 C6,30.9 5,31.3 3.9,32.1 L3.9,32.3 C4.1,33.6 4.2,33.9 4.2,34.9 L4.2,35.7 L4.2,38.4 L4.2,40.4 L4.1,42.5 L6.3,42.3 L8.6,42.3 L8.5,41.4 L8.4,39.6 L8.3,37.9 L8.3,36.5 L8.3,34.9 C8.5,34.5 8.7,34.3 9,34 C9.3,34.4 9.3,34.5 9.5,34.9 C9.5,34.9 9.6,35 9.6,35.1 L9.7,37.1 L9.7,38.7 L9.6,40.8 L9.5,42.4 L12.3,42.3 L14,42.3 C13.9,41.9 13.9,41.8 13.9,41.3 L13.8,40.5 L13.8,40.1 L13.7,37.7 L13.7,35.8 L13.7,35.6 C13.7,35.2 13.7,35.1 13.9,34.9 C14.1,34.6 14.2,34.4 14.5,34.1 C14.9,34.6 15.1,35.1 15.1,35.4 C15.1,35.6 15.1,35.9 15,36.3 C15,36.6 14.9,37.6 14.9,38.3 C14.9,40.1 15.1,41.4 15.5,42.9 C17,42.5 18.4,41.7 19.7,40.7 C19.5,40 19.4,39.5 19.3,38.8 C19.2,38 19,36.6 19,36.1 L19,34.5 L19,33.3 C18.8,32.7 18.6,32.5 18.4,32.1 C18,31.5 18,31.4 17.6,31.3 L16.9,30.9 L16.2,30.6 C16.1,30.5 16,30.5 16,30.5 C15.9,30.5 15.8,30.6 15.5,30.7 L14.9,31.1 C14.5,31.3 13.9,31.8 13.5,32.2 L13.5,32.2 L13.5,32.2 Z" id="m"></path>
    <path d="M23.5,40.2 C23.5,40.1 23.5,40 23.4,40 L23.1,38.9 C23,38.6 23,38.4 23,38.3 C23,38.2 23,38.1 23.1,37.9 L23.2,37.4 L23.4,36.5 C23.5,36 23.5,36 23.9,35.8 L24.4,35.4 C24.5,35.3 24.5,35.3 24.6,35.3 L24.6,36.2 L24.6,38.3 L24.6,39.7 C24.6,40.1 24.6,40.2 24.4,40.3 C24.2,40.5 24,40.6 24,40.6 C24,40.6 23.7,40.4 23.5,40.2 L23.5,40.2 L23.5,40.2 Z M29,42.5 L29,42.3 C28.9,41.3 28.8,41 28.8,40.3 L28.8,39.7 L28.8,38.7 L28.8,37.3 C28.8,35.8 28.7,34.6 28.6,33.8 L28.5,33.1 C28.5,32.8 28.4,32.7 28.2,32.5 L27.9,32.2 C27.1,31.5 26.7,31.1 26.1,30.8 C25.3,30.3 25.1,30.3 24.9,30.3 C23.7,30.3 22.3,30.7 21.1,31.4 C20.9,31.5 20.8,31.6 20.8,31.6 C20.6,31.7 20.5,31.8 20.5,31.8 L20.4,31.9 C20.8,32.8 21.1,33.3 21.5,33.9 C22.3,32.9 23.1,32.2 23.9,31.7 C24.4,32.2 24.6,32.8 24.8,33.7 L23.4,33.9 L22.6,34.1 L22.2,34.2 L21.8,34.3 C21.6,34.4 21.4,34.5 21.1,34.6 L20.9,34.7 C20.8,34.8 20.8,34.9 20.7,35 L20.5,35.3 C20.3,35.6 20.1,35.9 19.9,36.3 C19.6,36.8 19.6,37 19.5,37.3 C19.4,38 19.3,38.7 19.3,39.7 C19.6,40.4 20.1,41.3 20.7,42.1 C21.7,42.7 22.5,43 23.1,43 L24.1,42.3 C24.4,42.1 24.7,41.9 25.1,41.7 L25.5,42.5 L26,42.4 L27.6,42.4 L29,42.5 L29,42.5 Z" id="a"></path>
    <path d="M34.4,33.4 C34.7,33.5 34.8,33.6 35,33.9 C35.3,34.3 35.3,34.3 35.3,34.4 L35.3,37.7 L35.2,39.5 C34.8,40.3 34.7,40.4 34.4,40.7 C34.3,40.6 34.3,40.6 34.3,40.5 L34,40.1 C33.7,39.6 33.7,39.8 33.6,38.6 C33.5,37.9 33.5,37.4 33.5,36.2 C33.5,35.7 33.5,35.5 33.7,34.9 C33.9,34.4 34.1,34 34.4,33.4 L34.4,33.4 L34.4,33.4 Z M39.2,21.9 C39.1,21.9 39,21.9 38.8,22 L38.5,22.1 C38.1,22.2 37.3,22.5 36.8,22.8 C36.3,23 35.9,23.3 35.3,23.7 L35.1,23.8 C35.3,24.6 35.4,29.7 35.4,30.1 L35.4,31.9 C34.8,31.4 34.3,31.1 33.5,30.8 L33.3,30.7 C32.6,30.9 32.1,31.1 31.5,31.5 L31.2,31.7 C30.9,31.9 30.8,31.9 30.8,32.1 C30.5,32.5 30,33.6 29.7,34.3 C29.6,34.5 29.6,34.6 29.6,34.6 C29.5,34.9 29.4,35 29.4,35.2 C29.3,35.8 29.2,36.6 29.2,37.2 C29.2,37.6 29.2,38 29.3,38.6 L29.4,39.4 L29.4,39.6 C29.4,39.8 29.4,39.8 29.5,40 L29.8,40.5 C30.1,41.1 31.2,42.2 31.8,42.8 L32.5,43.4 C33.5,43.3 34.4,42.9 35.7,41.8 C35.8,41.9 35.9,42 35.9,42 C36,42.1 36.1,42.2 36.2,42.3 L36.5,42.6 L36.6,42.7 L38.1,42.7 L39.8,42.8 L39.7,42.3 L39.5,40.6 L39.4,38.5 L39.4,31.8 L39.4,30.3 L39.4,24.4 C39.4,24.3 39.4,25.3 39.4,23.7 L39.4,23 C39.3,22.6 39.3,22.4 39.2,21.9 L39.2,21.9 L39.2,21.9 Z" id="d"></path>
    <path d="M61.7,21.5 C59.8,22 58.8,22.5 57.6,23.4 C57.7,24.2 57.8,30 57.8,30.5 L57.8,34.6 L57.7,40 L57.6,42.6 C58.7,42.5 59.6,42.5 60.1,42.5 L60.9,42.5 L62.1,42.5 L62,41.5 L61.9,39.8 L61.8,37.2 L61.8,24 L61.7,22.4 L61.7,21.5 L61.7,21.5 Z" id="l"></path>
    <path d="M44.7,32.1 C45,32.5 45.2,32.8 45.5,33.5 C45.5,34.5 45.5,34.9 45.4,35.7 L45.1,35.8 L43.9,36.4 C43.9,35.9 43.8,35.6 43.8,34.9 L43.8,34.3 L43.8,33.8 C43.8,33.5 43.8,33.4 43.9,33.1 L44,32.9 L44.3,32.4 L44.4,32.2 L44.7,32.1 L44.7,32.1 Z M49.3,36.5 C49.3,36.1 49.3,36.1 49.2,35.7 C49.1,35.1 49,34.3 48.9,33.9 C48.6,32.8 48.7,32.8 48,32.2 C47.1,31.5 46,30.9 44.2,30.3 C43.1,30.8 41.4,31.8 40.8,32.5 L40.5,32.8 C40.2,33.1 40.2,33.1 40.1,33.5 L39.9,34.3 C39.7,35 39.6,36.3 39.6,37.5 C39.6,37.9 39.6,38 39.8,38.5 C40,39 40.4,39.8 40.6,40.2 L41,40.8 C41.3,41.3 41.3,41.3 42.4,41.9 C43.4,42.5 44.3,42.9 44.6,42.9 C44.8,42.9 45.5,42.7 46.2,42.4 C47.1,42 47.8,41.6 48.6,41.1 C48.3,40 48.1,39.3 47.7,38.7 L46.8,39.6 L45.8,40.5 L45.7,40.5 L45.5,40.5 C45.2,40.5 45,40.3 44.8,39.8 C44.4,39.1 44.3,38.6 44.1,37.9 L44.6,37.7 L45.7,37.3 L46.9,36.9 L48.2,36.6 L49.3,36.5 L49.3,36.5 Z" id="e"></path>
    <path d="M53,30.6 C52.7,30.6 52.6,30.7 52.4,30.7 C52.3,30.7 52.2,30.8 52.2,30.8 C52.1,30.8 52,30.9 51.9,30.9 L50.5,31.4 L49.1,32.1 C49.4,32.8 49.4,33.1 49.4,34.1 L49.4,35 L49.4,37.5 L49.4,40.5 L49.3,42.5 L51.3,42.4 L53.6,42.5 L53.5,40.6 L53.5,39 L53.5,36.6 L53.6,34.7 C53.9,34.4 54.2,34.2 54.5,34 C54.7,34.1 54.8,34.1 55.1,34.2 C55.7,34.4 55.8,34.6 56,34.7 C56.5,33.9 57.1,32.6 57.3,31.9 L57.4,31.7 C56.9,31.3 56.3,31 55.7,30.8 L55.5,30.9 L55,31.3 C54.8,31.4 54.7,31.6 54.6,31.7 L53.7,32.6 C53.5,31.6 53.3,31.1 53,30.6 L53,30.6 L53,30.6 Z" id="r"></path>
    <path d="M64.4,24.2 C63.6,24.7 62.8,25.5 62.2,26.2 C62.7,26.6 62.9,26.9 63.3,27.1 C63.8,27.4 64.4,27.8 64.5,27.8 C64.6,27.8 64.9,27.6 65.2,27.3 L65.9,26.7 C66,26.6 66.1,26.5 66.1,26.5 L66.6,26 C65.9,25.2 65.5,24.8 64.4,24.2 L64.4,24.2 L64.4,24.2 Z" id="i"></path>
    <path d="M66.7,30.2 C65.8,30.5 65.3,30.7 64.6,31 C63.6,31.4 63.2,31.7 62.5,32.3 C62.8,33.1 62.8,33.5 62.8,34.7 L62.8,37.6 L62.8,38.9 L62.7,42.5 L65,42.4 L66.6,42.4 L67,42.5 L66.9,40.3 L66.8,38.3 L66.8,35.9 L66.8,33.7 L66.8,32 L66.7,30.2 L66.7,30.2 Z" id="i"></path>
    <path d="M77.3,32.2 C76.7,31.6 76.2,31.2 75.6,30.8 C75.2,30.6 75,30.4 74.9,30.4 C74.7,30.4 74.4,30.5 74,30.7 C73.3,31.1 72.7,31.5 72,32.2 C71.7,31.5 71.5,31.1 71.2,30.5 C69.8,30.9 68.8,31.3 67.7,32.1 L67.7,32.3 C67.9,33.6 68,33.9 68,34.9 L68,35.7 L68,38.4 L68,40.4 L67.9,42.5 L70.1,42.3 L72.4,42.3 L72.3,41.4 L72.2,39.6 L72.1,37.9 L72.1,36.5 L72.1,34.9 C72.3,34.5 72.5,34.3 72.8,34 C73.1,34.4 73.1,34.5 73.3,34.9 C73.3,34.9 73.4,35 73.4,35.1 L73.5,37.1 L73.5,38.7 L73.4,40.8 L73.3,42.4 L76.1,42.3 L77.8,42.3 C77.7,41.9 77.7,41.8 77.7,41.3 L77.6,40.5 L77.6,40.1 L77.5,37.7 L77.5,35.8 L77.5,35.6 C77.5,35.2 77.5,35.1 77.7,34.9 C77.9,34.6 78,34.4 78.3,34.1 C78.7,34.6 78.9,35.1 78.9,35.4 C78.9,35.6 78.9,35.9 78.8,36.3 C78.8,36.6 78.7,37.6 78.7,38.3 C78.7,40.1 78.9,41.4 79.3,42.9 C80.8,42.5 82.2,41.7 83.5,40.7 C83.3,40 83.2,39.5 83.1,38.8 C83,38 82.8,36.6 82.8,36.1 L82.8,34.5 L82.8,33.3 C82.6,32.7 82.4,32.5 82.2,32.1 C81.8,31.5 81.8,31.4 81.4,31.3 L80.7,30.9 L80,30.6 C79.9,30.5 79.8,30.5 79.8,30.5 C79.7,30.5 79.6,30.6 79.3,30.7 L78.7,31.1 C78.3,31.3 77.7,31.8 77.3,32.2 L77.3,32.2 L77.3,32.2 Z" id="m"></path>
  </symbol>

  <symbol id="icon-logo_sf" viewBox="0 0 15 15">
      <path d="M6.43815718,3.4 L9.65723577,3.4 L9.65723577,6.8 L6.43815718,6.8 L6.43815718,3.4 L6.43815718,3.4 Z M3.21907859,13.6 L3.21907859,10.2 L6.41646612,10.2 L6.41646612,6.8 L3.21907859,6.8 L3.21907859,-8.32667268e-16 L-4.41441524e-16,-8.32667268e-16 L-4.41441524e-16,17 L9.65723577,17 L9.65723577,13.6 L3.21907859,13.6 L3.21907859,13.6 Z"></path>
  </symbol>

  <symbol id="icon-envelope" viewBox="0 0 1216 1024">
  	<path class="path1" d="M641.92 13.216c-18.56-17.056-49.248-17.056-67.808 0l-566.016 341.472c-4.8 2.912-7.744 8.096-7.744 13.696v605.504c0 27.616 22.592 50.112 50.368 50.112h1114.56c27.776 0 50.368-22.496 50.368-50.112v-605.504c0-5.6-2.944-10.784-7.744-13.696l-565.984-341.472zM592.128 39.68c1.12-0.672 2.112-1.472 3.040-2.368 3.456-3.424 8-5.312 12.832-5.312s9.376 1.888 12.8 5.312c0.928 0.896 1.952 1.696 3.040 2.368l551.264 332.608-399.296 237.952c-7.584 4.544-10.080 14.336-5.568 21.952 3.008 5.024 8.32 7.808 13.76 7.808 2.784 0 5.6-0.704 8.16-2.24l391.84-233.28v568.224l-541.92-360.512c-17.216-13.728-51.008-13.728-67.072-0.8l-543.008 361.152v-568.064l391.808 233.28c2.56 1.536 5.408 2.24 8.192 2.24 5.44 0 10.752-2.784 13.76-7.808 4.512-7.584 2.016-17.408-5.568-21.952l-399.328-237.952 551.264-332.608zM1154.88 992h-1094.016l532.992-354.752c5.536-4.416 22.784-4.384 29.408 0.8l531.616 353.952zM208 416h800c8.832 0 16-7.168 16-16s-7.168-16-16-16h-800c-8.832 0-16 7.168-16 16s7.168 16 16 16z"></path>
  </symbol>

  <symbol id="icon-paperclip" viewBox="0 0 1088 1024">
  	<path class="path1" d="M178.784 1019.744c64.48 0 133.856-32.832 182.624-81.632l540.256-549.408c27.712-27.712 43.136-64.448 43.392-103.392 0.288-39.040-14.688-75.648-42.112-103.104-56.576-56.544-149.152-56.032-206.784 1.536l-414.112 432.96c-6.496 6.816-6.272 17.664 0.576 24.192 6.816 6.528 17.6 6.272 24.192-0.544l413.824-432.704c43.936-43.968 114.912-44.512 158.112-1.28 20.896 20.896 32.32 48.832 32.096 78.656-0.192 29.92-12.064 58.112-33.472 79.552l-540.256 549.44c-56.832 56.8-173.632 108.32-243.68 38.208-33.184-33.184-49.824-73.888-48.096-117.728 1.696-43.52 22.176-87.040 57.824-122.656l617.472-626.688c32.832-32.832 84.128-51.84 140.672-52.032 0.352 0 0.672 0 1.024 0 56.064 0 106.656 18.464 138.944 50.752 32.512 32.48 51.008 83.488 50.784 139.968-0.224 56.544-19.232 107.808-52.288 140.864l-476.64 495.52c-6.56 6.816-6.336 17.632 0.48 24.192 6.784 6.528 17.632 6.336 24.16-0.48l476.416-495.296c39.2-39.168 61.824-99.2 62.048-164.672 0.288-65.504-21.888-125.408-60.768-164.288-38.656-38.656-98.048-60.8-163.136-60.8-0.384 0-0.768 0-1.152 0-65.504 0.256-125.536 22.88-164.8 62.144l-617.504 626.72c-86.432 86.432-90.464 207.84-9.632 288.672 30.304 30.272 68.928 43.328 109.536 43.328z"></path>
  </symbol>

  <symbol id="icon-brocha" viewBox="0 0 704 1024">
  	<path d="M492.896 672h146.56c33.696 0 61.088-27.392 64.544-61.088v-549.824c-3.456-33.696-30.848-61.088-64.544-61.088h-574.912c-33.696 0-61.088 27.392-64.544 61.088v549.824c3.456 33.696 30.848 61.088 64.544 61.088h158.784c11.136 0 66.656 2.368 66.656 49.344 0 83.904-17.696 122.944-24.384 137.664l-1.568 3.488 12.896 5.568v0.416l-14.304-2.88c-0.544 1.056-0.96 2.176-1.216 3.328-4.928 13.152-7.424 26.656-7.424 40.224 0.032 68.704 39.392 114.848 98.016 114.848 59.232 0 99.008-46.144 99.008-114.848 0-12.512-2.112-24.96-6.336-37.152-0.16-3.648-1.568-7.040-3.808-9.664-0.832-1.92-1.92-4-3.232-6.464-7.008-13.28-21.632-40.864-21.632-134.528 0-19.84 20.48-49.344 76.896-49.344zM32 385.888h640v126.112h-640v-126.112zM64.544 32h574.912c16.032 0 29.088 13.056 32.544 29.088v292.768h-640v-292.768c3.456-16.032 16.512-29.088 32.544-29.088zM409.344 870.848c0.896 1.696 1.664 3.104 2.976 6.048 0 0.032 0.096 0.224 0.224 0.512 0.128 0.416 0.256 0.8 0.416 1.216 4 10.016 6.016 20.32 6.016 30.528 0.032 40.064-17.568 82.848-66.976 82.848-48.672 0-65.984-42.784-65.984-82.848 0-10.208 2.016-20.512 6.016-30.528 0.128-0.384 0.288-0.736 0.384-1.12 0.448-0.96 0.992-2.176 1.056-2.304l1.344-2.976c7.424-16.448 27.232-60.032 27.232-150.88-0.064-64.224-62.048-81.344-99.648-81.344 0 0 0 0-0.032 0h-157.824c-16.032 0-29.088-13.056-32.544-29.088v-66.912h640v66.912c-3.456 16.032-16.512 29.088-32.544 29.088h-146.56c-79.904 0-108.896 48.672-108.896 81.344 0 101.6 17.12 133.984 25.344 149.504z"></path>
  </symbol>

  <symbol id="icon-brocha2" viewBox="0 0 704 1024">
  	<path d="M492.896 672h146.56c33.696 0 61.088-27.392 64.544-61.088v-549.824c-3.456-33.696-30.848-61.088-64.544-61.088h-574.912c-33.696 0-61.088 27.392-64.544 61.088v549.824c3.456 33.696 30.848 61.088 64.544 61.088h158.784c11.136 0 66.656 2.368 66.656 49.344 0 83.904-17.696 122.944-24.384 137.664l-1.568 3.488 12.896 5.568v0.416l-14.304-2.88c-0.544 1.056-0.96 2.176-1.216 3.328-4.928 13.152-7.424 26.656-7.424 40.224 0.032 68.704 39.392 114.848 98.016 114.848 59.232 0 99.008-46.144 99.008-114.848 0-12.512-2.112-24.96-6.336-37.152-0.16-3.648-1.568-7.040-3.808-9.664-0.832-1.92-1.92-4-3.232-6.464-7.008-13.28-21.632-40.864-21.632-134.528 0-19.84 20.48-49.344 76.896-49.344zM32 385.888h640v126.112h-640v-126.112zM64.544 32h574.912c16.032 0 29.088 13.056 32.544 29.088v292.768h-640v-292.768c3.456-16.032 16.512-29.088 32.544-29.088zM409.344 870.848c0.896 1.696 1.664 3.104 2.976 6.048 0 0.032 0.096 0.224 0.224 0.512 0.128 0.416 0.256 0.8 0.416 1.216 4 10.016 6.016 20.32 6.016 30.528 0.032 40.064-17.568 82.848-66.976 82.848-48.672 0-65.984-42.784-65.984-82.848 0-10.208 2.016-20.512 6.016-30.528 0.128-0.384 0.288-0.736 0.384-1.12 0.448-0.96 0.992-2.176 1.056-2.304l1.344-2.976c7.424-16.448 27.232-60.032 27.232-150.88-0.064-64.224-62.048-81.344-99.648-81.344 0 0 0 0-0.032 0h-157.824c-16.032 0-29.088-13.056-32.544-29.088v-66.912h640v66.912c-3.456 16.032-16.512 29.088-32.544 29.088h-146.56c-79.904 0-108.896 48.672-108.896 81.344 0 101.6 17.12 133.984 25.344 149.504z"></path>
  </symbol>

  <symbol id="icon-magnifying-glass" viewBox="0 0 1024 1024">
  	<path class="path1" d="M336 0c-185.28 0-336 150.72-336 336s150.72 336 336 336c87.2 0 166.496-33.664 226.272-88.32 0.704 1.248 1.344 2.56 2.432 3.648l68.832 68.832c-5.76 9.728-9.024 20.736-9.024 32.352 0 17.088 6.656 33.152 18.752 45.248l271.52 271.52c12.064 12.064 28.128 18.72 45.216 18.72s33.152-6.656 45.248-18.752 18.752-28.16 18.752-45.248-6.656-33.152-18.752-45.248l-271.52-271.52c-20.288-20.288-53.088-23.328-77.44-9.568l-68.96-68.96c-1.088-1.088-2.368-1.728-3.648-2.432 54.656-59.776 88.32-139.072 88.32-226.272 0-185.28-150.72-336-336-336zM711.104 665.856l271.52 271.52c6.048 6.048 9.376 14.080 9.376 22.624s-3.328 16.576-9.376 22.624c-12.128 12.064-33.12 12.064-45.248 0l-271.52-271.52c-6.016-6.048-9.376-14.080-9.376-22.624s3.328-16.576 9.376-22.624c6.048-6.016 14.080-9.376 22.624-9.376s16.544 3.328 22.624 9.376zM336 640c-167.616 0-304-136.384-304-304s136.384-304 304-304 304 136.384 304 304-136.384 304-304 304zM336 96c-132.352 0-240 107.648-240 240s107.648 240 240 240 240-107.648 240-240-107.648-240-240-240zM336 544c-114.688 0-208-93.312-208-208s93.312-208 208-208 208 93.312 208 208-93.312 208-208 208z"></path>
  </symbol>

  <symbol id="icon-clock" viewBox="0 0 1024 1024">
  	<path class="path1" d="M512 1024c282.304 0 512-229.696 512-512s-229.696-512-512-512-512 229.696-512 512 229.696 512 512 512zM512 32c264.672 0 480 215.328 480 480s-215.328 480-480 480-480-215.328-480-480 215.328-480 480-480zM641.952 696.576c3.136 3.136 7.232 4.672 11.328 4.672s8.192-1.568 11.328-4.672c6.24-6.24 6.24-16.384 0-22.624l-152.608-152.576v-223.168c0-8.832-7.168-16-16-16s-16 7.168-16 16v229.792c0 4.256 1.696 8.32 4.672 11.328l157.28 157.248zM96 512c0 17.673 14.327 32 32 32s32-14.327 32-32c0-17.673-14.327-32-32-32s-32 14.327-32 32zM864 512c0 17.673 14.327 32 32 32s32-14.327 32-32c0-17.673-14.327-32-32-32s-32 14.327-32 32zM480 128c0 17.673 14.327 32 32 32s32-14.327 32-32c0-17.673-14.327-32-32-32s-32 14.327-32 32zM480 896c0 17.673 14.327 32 32 32s32-14.327 32-32c0-17.673-14.327-32-32-32s-32 14.327-32 32zM224 256c0 17.673 14.327 32 32 32s32-14.327 32-32c0-17.673-14.327-32-32-32s-32 14.327-32 32zM736 768c0 17.673 14.327 32 32 32s32-14.327 32-32c0-17.673-14.327-32-32-32s-32 14.327-32 32zM768 256c0 17.673 14.327 32 32 32s32-14.327 32-32c0-17.673-14.327-32-32-32s-32 14.327-32 32zM224 768c0 17.673 14.327 32 32 32s32-14.327 32-32c0-17.673-14.327-32-32-32s-32 14.327-32 32z"></path>
  </symbol>

  <symbol id="icon-alarmclock" viewBox="0 0 960 1024">
  	<path class="path1" d="M480 64c-247.040 0-448 200.96-448 448s200.96 448 448 448 448-200.96 448-448-200.96-448-448-448zM480 928c-229.376 0-416-186.624-416-416s186.624-416 416-416 416 186.624 416 416-186.624 416-416 416zM240 0c-132.352 0-240 107.648-240 240v33.984c0 8.832 7.168 16 16 16s16-7.136 16-16v-33.984c0-114.688 93.312-208 208-208h28c8.832 0 16-7.168 16-16s-7.168-16-16-16h-28zM716 0h-28c-8.832 0-16 7.168-16 16s7.168 16 16 16h28c114.688 0 208 93.312 208 208v33.984c0 8.832 7.168 16 16 16s16-7.168 16-16v-33.984c0-132.352-107.648-240-240-240zM480 521.376v-223.168c0-8.832-7.168-16-16-16s-16 7.168-16 16v229.792c0 4.256 1.696 8.32 4.672 11.328l157.248 157.248c3.136 3.136 7.232 4.672 11.328 4.672s8.192-1.568 11.328-4.672c6.24-6.24 6.24-16.384 0-22.624l-152.576-152.576zM60.8 1017.6l96-128c5.28-7.072 3.84-17.088-3.232-22.4-7.040-5.248-17.056-3.84-22.4 3.232l-96 128c-5.28 7.072-3.84 17.088 3.232 22.4 2.88 2.144 6.272 3.168 9.6 3.168 4.832 0 9.664-2.208 12.8-6.4zM828.8 870.4c-5.344-7.104-15.328-8.48-22.4-3.232-7.072 5.312-8.512 15.328-3.232 22.4l96 128c3.168 4.192 7.968 6.4 12.8 6.4 3.328 0 6.72-1.024 9.6-3.2 7.072-5.312 8.512-15.328 3.232-22.4l-96-127.968z"></path>
  </symbol>

  <symbol id="icon-facebook" viewBox="0 0 1024 1024">
  	<path class="path1" d="M512-1.088c-282.912 0-513.12 230.144-513.12 513.088s230.208 513.088 513.12 513.088 513.12-230.144 513.12-513.088-230.208-513.088-513.12-513.088zM512 990.912c-264.064 0-478.88-214.848-478.88-478.912s214.816-478.912 478.88-478.912 478.88 214.848 478.88 478.912-214.816 478.912-478.88 478.912zM624 224h-85.376c-108.736-1.088-122.624 66.208-122.624 139.040v52.96h-48c-9.44-1.088-17.12 6.56-16 16v96c-1.12 9.44 6.56 17.088 16 16h48v240c-0.992 9.44 6.656 17.088 16.096 16h97.76c9.44 1.088 17.088-6.56 14.080-16l0.064-240h80c9.44 1.088 17.12-6.56 16-16v-96c1.12-9.44-6.56-17.088-16-16h-80.096l0.096-48c3.104-20.448 3.104-17.12 22.080-16h57.248c4.448-0.992 9.184-0.448 12.512-3.68s5.248-7.648 4.128-12.32v-96c1.152-9.44-6.528-17.088-15.968-16zM606.88 318.208l-40.128-1.536c-49.696 0-53.856 26.976-53.856 54.592l-0.128 60.672c0 4.544 1.792 8.896 4.992 12.128 3.2 3.2 7.552 4.992 12.096 4.992h78.144v61.824h-78.080c-9.44 0-17.088 7.648-17.12 17.088l-0.032 240.032h-64.768v-240c0-9.44-6.432-17.088-15.904-17.088h-48.096v-61.824h48.096c4.544 0 8.896-1.792 12.096-4.992 3.2-3.232 3.776-7.584 3.776-12.128v-68.96c0-71.744 14.496-105.92 90.624-105.92h68.256v61.12z"></path>
  </symbol>

  <symbol id="icon-contacto" viewBox="0 0 1024 1024">
  	<path class="path1" d="M431.584 562.318c0 29.038-23.538 52.576-52.576 52.576s-52.576-23.538-52.576-52.576 23.538-52.576 52.576-52.576c29.038 0 52.576 23.538 52.576 52.576zM644.996 509.74c-29.038 0-52.576 23.538-52.576 52.576s23.54 52.576 52.576 52.576c29.038 0 52.576-23.538 52.576-52.576s-23.54-52.576-52.576-52.576zM1024 533.010v99.918c0 50.168-40.668 90.836-90.836 90.836h-65.914c-65.312 181.35-232.096 290.886-355.25 290.886s-289.938-109.536-355.25-290.886h-65.914c-50.168 0-90.834-40.668-90.834-90.836v-99.918c0-34.522 19.26-64.54 47.62-79.91 0.952-141.862 42.298-252.658 123.068-329.252 80.116-75.974 194.95-114.5 341.31-114.5s261.198 38.524 341.312 114.496c80.77 76.596 122.116 187.39 123.068 329.252 28.358 15.37 47.62 45.39 47.62 79.912zM831.746 562.65c0-23.374-1.196-45.334-2.962-66.614-40.314-36.882-113.498-64.87-205.86-75.268 12.126 13.638 22.602 31.574 28.956 55.188-56.572-44.57-167.622-33.962-251.62-133.698-4.814-5.572-8.978-10.894-12.582-15.756-0.042-0.058-0.088-0.104-0.13-0.162l0.010 0.004c-14.942-20.208-20.038-32.228-20.324-18.924-2.464 114.638-83.716 204.004-173.944 216.614-0.57 12.606-1.038 25.336-1.038 38.618 0 48.454 7.914 92.614 21.366 132.412 50.68 61.132 134.378 78.394 208.458 82.972 13.75-21.88 44.608-37.154 80.54-37.154 48.718 0 88.21 28.034 88.21 62.616s-39.494 62.616-88.212 62.616c-37.476 0-69.408-16.616-82.192-40.012-51.774-3.010-108.69-11.836-159.416-35.788 71.338 105.146 181.926 160.75 250.988 160.75 108.524 0 319.746-137.096 319.746-388.414zM921.692 442.174c-5.782-247.552-147.082-378.322-409.692-378.322s-403.91 130.77-409.692 378.322h34.948c12.778-83.436 39.786-152.058 80.79-204.818 65.344-84.076 164.244-126.706 293.954-126.706s228.61 42.632 293.956 126.706c41.002 52.762 68.012 121.382 80.79 204.818h34.948z"></path>
  </symbol>

  <symbol id="icon-hamenu" viewBox="0 0 1288 1024">
  	<path class="path1" d="M1285.048 3.928v219.010h-1281.288v-219.010h1281.288zM1285.060 395.482v219.15h-1281.374v-219.15h1281.374zM3.806 800.376h1280.308v219.61h-1280.308v-219.61z"></path>
  </symbol>

  <symbol id="icon-logo_sf" viewBox="0 0 1024 1024">
  	<path class="path1" d="M409.6 204.8h204.8v204.8h-204.8v-204.8zM204.8 819.2v-204.8h203.42v-204.8h-203.42v-409.6h-204.8v1024h614.4v-204.8h-409.6z"></path>
  </symbol>

  <symbol id="icon-logo_sf2" viewBox="0 0 1024 1024">
  	<path class="path1" d="M148.48 1003.52h-128v-983.040h163.84v819.2h409.6v163.84h-445.44zM409.6 204.8v204.8h204.8v-204.8h-204.8zM204.8 819.2v-204.8h203.42v-204.8h-203.42v-409.6h-204.8v1024h614.4v-204.8h-409.6zM184.32 430.080h204.8v163.84h-204.8v-163.84z"></path>
  </symbol>

  <symbol id="icon-ok" viewBox="0 0 1024 1024">
  	<path class="icon-ok" d="M850.872 325.262l-62.318-62.314-373.686 373.688-127.252-127.26-62.318 62.314 189.36 189.36 0.214-0.216 0.208 0.212z"></path>
  </symbol>

  <symbol id="icon-sun" viewBox="0 0 1024 1024">
  	<path class="path1" d="M512 832c35.346 0 64 28.654 64 64v64c0 35.346-28.654 64-64 64s-64-28.654-64-64v-64c0-35.346 28.654-64 64-64zM512 192c-35.346 0-64-28.654-64-64v-64c0-35.346 28.654-64 64-64s64 28.654 64 64v64c0 35.346-28.654 64-64 64zM960 448c35.346 0 64 28.654 64 64s-28.654 64-64 64h-64c-35.348 0-64-28.654-64-64s28.652-64 64-64h64zM192 512c0 35.346-28.654 64-64 64h-64c-35.346 0-64-28.654-64-64s28.654-64 64-64h64c35.346 0 64 28.654 64 64zM828.784 738.274l45.256 45.258c24.992 24.99 24.992 65.516 0 90.508-24.994 24.992-65.518 24.992-90.51 0l-45.256-45.256c-24.992-24.99-24.992-65.516 0-90.51 24.994-24.992 65.518-24.992 90.51 0zM195.216 285.726l-45.256-45.256c-24.994-24.994-24.994-65.516 0-90.51s65.516-24.994 90.51 0l45.256 45.256c24.994 24.994 24.994 65.516 0 90.51s-65.516 24.994-90.51 0zM828.784 285.726c-24.992 24.992-65.516 24.992-90.51 0-24.992-24.994-24.992-65.516 0-90.51l45.256-45.254c24.992-24.994 65.516-24.994 90.51 0 24.992 24.994 24.992 65.516 0 90.51l-45.256 45.254zM195.216 738.274c24.992-24.992 65.518-24.992 90.508 0 24.994 24.994 24.994 65.52 0 90.51l-45.254 45.256c-24.994 24.992-65.516 24.992-90.51 0s-24.994-65.518 0-90.508l45.256-45.258z"></path>
  	<path class="path2" d="M512 256c-141.384 0-256 114.616-256 256 0 141.382 114.616 256 256 256 141.382 0 256-114.618 256-256 0-141.384-114.616-256-256-256zM512 672c-88.366 0-160-71.634-160-160s71.634-160 160-160 160 71.634 160 160-71.634 160-160 160z"></path>
  </symbol>

  <symbol id="icon-arrow-up2" viewBox="0 0 1024 1024">
  	<path class="path1" d="M877.254 402.746l-320-320c-24.992-24.994-65.514-24.994-90.508 0l-320 320c-24.994 24.994-24.994 65.516 0 90.51 24.994 24.996 65.516 24.996 90.51 0l210.744-210.746v613.49c0 35.346 28.654 64 64 64s64-28.654 64-64v-613.49l210.746 210.746c12.496 12.496 28.876 18.744 45.254 18.744s32.758-6.248 45.254-18.746c24.994-24.994 24.994-65.514 0-90.508z"></path>
  </symbol>

  <symbol id="icon-arrow-right2" viewBox="0 0 1024 1024">
  	<path class="path1" d="M621.254 877.254l320-320c24.994-24.992 24.994-65.516 0-90.51l-320-320c-24.994-24.992-65.516-24.992-90.51 0-24.994 24.994-24.994 65.516 0 90.51l210.746 210.746h-613.49c-35.346 0-64 28.654-64 64s28.654 64 64 64h613.49l-210.746 210.746c-12.496 12.496-18.744 28.876-18.744 45.254s6.248 32.758 18.744 45.254c24.994 24.994 65.516 24.994 90.51 0z"></path>
  </symbol>

  <symbol id="icon-arrow-left2" viewBox="0 0 1024 1024">
  	<path class="path1" d="M402.746 877.254l-320-320c-24.994-24.992-24.994-65.516 0-90.51l320-320c24.994-24.992 65.516-24.992 90.51 0 24.994 24.994 24.994 65.516 0 90.51l-210.746 210.746h613.49c35.346 0 64 28.654 64 64s-28.654 64-64 64h-613.49l210.746 210.746c12.496 12.496 18.744 28.876 18.744 45.254s-6.248 32.758-18.744 45.254c-24.994 24.994-65.516 24.994-90.51 0z"></path>
  </symbol>

  <symbol id="icon-circle-up" viewBox="0 0 1024 1024">
  	<path class="path1" d="M0 512c0 282.77 229.23 512 512 512s512-229.23 512-512-229.23-512-512-512-512 229.23-512 512zM928 512c0 229.75-186.25 416-416 416s-416-186.25-416-416 186.25-416 416-416 416 186.25 416 416z"></path>
  	<path class="path2" d="M706.744 669.256l90.512-90.512-285.256-285.254-285.254 285.256 90.508 90.508 194.746-194.744z"></path>
  </symbol>

  <symbol id="icon-file-pdf" viewBox="0 0 1024 1024">
  	<path class="path1" d="M842.012 589.48c-13.648-13.446-43.914-20.566-89.972-21.172-31.178-0.344-68.702 2.402-108.17 7.928-17.674-10.198-35.892-21.294-50.188-34.658-38.462-35.916-70.568-85.772-90.576-140.594 1.304-5.12 2.414-9.62 3.448-14.212 0 0 21.666-123.060 15.932-164.666-0.792-5.706-1.276-7.362-2.808-11.796l-1.882-4.834c-5.894-13.592-17.448-27.994-35.564-27.208l-10.916-0.344c-20.202 0-36.664 10.332-40.986 25.774-13.138 48.434 0.418 120.892 24.98 214.738l-6.288 15.286c-17.588 42.876-39.63 86.060-59.078 124.158l-2.528 4.954c-20.46 40.040-39.026 74.028-55.856 102.822l-17.376 9.188c-1.264 0.668-31.044 16.418-38.028 20.644-59.256 35.38-98.524 75.542-105.038 107.416-2.072 10.17-0.53 23.186 10.014 29.212l16.806 8.458c7.292 3.652 14.978 5.502 22.854 5.502 42.206 0 91.202-52.572 158.698-170.366 77.93-25.37 166.652-46.458 244.412-58.090 59.258 33.368 132.142 56.544 178.142 56.544 8.168 0 15.212-0.78 20.932-2.294 8.822-2.336 16.258-7.368 20.792-14.194 8.926-13.432 10.734-31.932 8.312-50.876-0.72-5.622-5.21-12.574-10.068-17.32zM211.646 814.048c7.698-21.042 38.16-62.644 83.206-99.556 2.832-2.296 9.808-8.832 16.194-14.902-47.104 75.124-78.648 105.066-99.4 114.458zM478.434 199.686c13.566 0 21.284 34.194 21.924 66.254s-6.858 54.56-16.158 71.208c-7.702-24.648-11.426-63.5-11.426-88.904 0 0-0.566-48.558 5.66-48.558v0zM398.852 637.494c9.45-16.916 19.282-34.756 29.33-53.678 24.492-46.316 39.958-82.556 51.478-112.346 22.91 41.684 51.444 77.12 84.984 105.512 4.186 3.542 8.62 7.102 13.276 10.65-68.21 13.496-127.164 29.91-179.068 49.862v0zM828.902 633.652c-4.152 2.598-16.052 4.1-23.708 4.1-24.708 0-55.272-11.294-98.126-29.666 16.468-1.218 31.562-1.838 45.102-1.838 24.782 0 32.12-0.108 56.35 6.072 24.228 6.18 24.538 18.734 20.382 21.332v0z"></path>
  	<path class="path2" d="M917.806 229.076c-22.21-30.292-53.174-65.7-87.178-99.704s-69.412-64.964-99.704-87.178c-51.574-37.82-76.592-42.194-90.924-42.194h-496c-44.112 0-80 35.888-80 80v864c0 44.112 35.886 80 80 80h736c44.112 0 80-35.888 80-80v-624c0-14.332-4.372-39.35-42.194-90.924v0zM785.374 174.626c30.7 30.7 54.8 58.398 72.58 81.374h-153.954v-153.946c22.982 17.78 50.678 41.878 81.374 72.572v0zM896 944c0 8.672-7.328 16-16 16h-736c-8.672 0-16-7.328-16-16v-864c0-8.672 7.328-16 16-16 0 0 495.956-0.002 496 0v224c0 17.672 14.324 32 32 32h224v624z"></path>
  </symbol>

</svg>
