<svg width="84px" height="44px" viewBox="0 0 84 44" version="1.1" xmlns="http://www.w3.org/2000/svg" xmlns:xlink="http://www.w3.org/1999/xlink" xmlns:sketch="http://www.bohemiancoding.com/sketch/ns">
    <title>logo</title>
    <desc>Created with Sketch.</desc>
    <g id="Page-1" stroke="none" stroke-width="1" fill="none" fill-rule="evenodd" sketch:type="MSPage">
        <g id="logo" sketch:type="MSLayerGroup">
            <path d="M20.3,9.7 C18.8,10.5 17.2,11.3 15.7,12.1 C14.9,12.6 14,13.1 13.2,13.7 C12.4,14.2 11.6,14.8 10.8,15.5 C10.4,15.8 8.8,17 8.4,17.3 C7.7,18 5.1,20.4 4.6,21 C4.1,21.6 3.7,22.1 3.3,22.7 C2.9,23.3 2.4,23.8 2,24.3 C1.6,24.8 1.13780045,25.4538868 0.748801883,25.8143223 C1.24880188,25.0143223 3.2,21.9 3.2,21.6 C2.2,22.5 1.4,23.8 0.5,24.9 C0.624089857,24.4000004 1.8,22.8 2,22.5 C2.1,22.4 3.6,20.6 4.1,20 C4.4,19.6 4.8,19.1 5,18.6 C4.5,18.9 2.59999997,21.0999998 2.39999997,21.3999998 C2.39999997,21.1999998 2.7,20.5 2.9,20.4 C3.2,20.1 3.5,19.7 3.9,19.4 C4.6,18.8 5.2,17.9 5.9,17.2 C6.6,16.5 7.3,15.8 8,15.1 C8.3,14.8 9.8,13.6 10.2,13.3 C11.7,12.3 13.4,11.4 14.9,10.5 C15.7,10 16.6,9.5 17.4,9.1 C18.1,8.7 19.1,8.2 19.6,7.6 C18.9,7.5 17.8,8 17.3,8.3 C16.5,8.7 15.6,9.1 14.8,9.5 C14,9.9 13.2,10.5 12.5,11.1 C11.7,11.7 10.9,12.2 10.2,12.8 C8.9,14 7.2,15.1 6.2,16.6 C6,16.9 5.6,17.1 5.3,17.4 C5,17.7 1.9,21.4 1.4,22 C1.39999998,21.4000004 2.16173446,20.6394375 2.6,20 C3.09043217,19.4000004 5.9,16.4 6.5,15.7 C7,15.1 7.8,14.2 8.5,13.7 C10,12.4999998 12.3,10.8 13.1,10.3 C14.7,9.3 16.4,8.4 18.1,7.5 C19,7.1 19.9,6.7 20.7,6.3 C21.2,6.1 23,5.5 23.1,5 C22.8,5 22.5,5.1 22.2,5.1 C23.2,4.8 24.2,4.3 25.2,4.2 C25,4.4 23.4,5 23,5.1 C22.2,5.3 21.4,5.8 20.6,6 C19.7,6.3 18.8,6.8 17.8,7 C17.4,7.1 17,7.5 16.6,7.6 C16.1,7.8 13.8,8.9 13.1,9.4 C12.4,9.9 11.8,10.5 11.1,10.9 C10.3,11.3 7.7,13.5 7,14.2 C7.3,13.8 8.40000019,12.6 8.80000019,12.3 C9.40000019,11.8 11.6000002,9.89636328 12.4,9.4 C13.1999998,8.90363672 14.4,8.2 14.8,7.9 C15.5,7.4 16.4,7.1 17.2,6.6 C17.6,6.4 18,6.1 18.4,5.9 C18.8,5.7 19.2,5.5 19.6,5.3 C20.4,5 21.2,4.7 22,4.5 C22.8,4.2 22.9999991,4.37146464 23.3999991,3.87146464 C21.8004832,4.07266537 20.5,5 18.7,5.4 C18.94803,5.10000006 20.2,4.7 20.7,4.5 C21.6,4.2 22.5,3.8 23.4,3.6 C24.2,3.4 27.5,2 28.3,1.8 C28.7,1.7 32.5346685,0.860485834 35.5,0.4 C38.4653315,-0.0604858339 44.0819697,0.0788574226 45.9,0.3 C47.7180303,0.521142577 55,2 56.9,2.4 C57.8,2.6 58.5,2.7 59.3,3.1 C60.2,3.5 63.4,4.6 64,4.9 C64.6,5.2 69.2,7.8 69.9,8 C70.5,8.2 72.9,9.9 73.1,10.5 C73.2,10.7 73.6,11.5 73.7,11.7 C73.8,11.8 74.3,12.8 74.1,13.2 C73.3,13.2 75.4,16 75.7,16.4 C75.4,16.3 75.1,16.3 74.8,16.3 C74.3,16.3 74.1,16.1 74.4,16.7 C74.7,17.5 75.6,18.3 76.2,19 C76.5,19.4 77.8,20.7 77.9,21.1 C77.9,21.3 77.6072268,22.5000002 77.3935428,22.5000002 C76.9935428,22.2000002 75.6,21.4 75.3,21.4 C74.7,21.5 75.3,23.1 74.3,22.8 C72.7,22.2 67.2,18.5 65.9,18 C65,17.7 64.2,17.3 63.4,16.9 C62.6,16.5 61.9,16.2 61.1,15.8 C61.4,15.9 61.8,16 62.2,16.1 C62.6,16.2 65.1624789,17.4000004 65.487186,17.5999992 C65.252811,17.0864876 64.6,17 64.2,16.7 C64,16.5 62.8,16 62.5,15.8 C61.8,15.4 59.7,14.3 59.4,14.2 C59,14 58.5,13.9 58.3,13.5 C59.1,14 60,14.4 60.9,14.7 C61.7,15 62.4,15.5 63.2,15.7 C63.1,15.3 59.7,13.7 59.1,13.5 C57.8,12.9 56.4,12.3 54.9,11.8 C54.1,11.5 48.112251,10.3000002 47.1,10.1 C46.087749,9.89999977 45.2,9.9 44.2,9.8 C42.3,9.7 40.5,9.80000001 38.6,9.8 C34.8553004,9.79999997 28.8,10.9 27,11.6 C25.3,12.3 19.6,14.8 18.5,15.5 C17.3,16.2 16.1,17.1 14.9,17.9 C13.6,18.7 12.6,19.9 11.4,20.8 C10.8,21.3 10.1,21.8 9.5,22.4 C9.3,22.6 9.1,23.3 8.8,23.4 C10.2,22.2 14.5,18.8 15.1,18.3 C15.7,17.7 16.6,17 17.3,16.7 C18,16.3 18.7,15.8 19.4,15.4 C20.1,14.9 22.5000003,13.9 22.7000003,13.7 C22.9000003,13.5 24.3,12.3 24.3,12.3 C23.7,12.6 21,13.8 20.4,14.1 C18.9,14.8 17.5,15.8 16.1,16.7 C14.7,17.6 13.3,18.3 12.1,19.4 C10.9,20.5 9.3,21.4 8.3,22.8 C8.4,22.6 6.4,25.2 5,26.6 C4.3,27.3 3.8,28 3.3,28.8 C3,29.1 2.1,30 2.4,29.6 C2.7,29.2 4.5,26.9 5.1,26.1 C6.4,24.5 7.8,22.9 9.2,21.4 C11.9,18.6 15.3000003,15.7838985 18.7000003,13.8838985 C19.2376513,13.6999996 21,12.6 21.2,12.3 C21.1,12.7 17.0999997,14.5112884 16.2999997,15.0112884 C14.5999997,16.0112884 13.2,17.2 11.5,18.2 C9.9,19.2 8.8,20.7 7.4,21.9 C6.7,22.5 6.2,23.3 5.6,23.9 C5.5,24 4.9,24.9 4.8,25 C4.5,25.4 4.1,25.7 3.9,26.1 C4.3,25.6 4.6,24.9 5,24.4 C4.7,24.8 4.3,25.2 3.9,25.6 C4.1,24.9 6.4,22.2 6.9,21.6 C7.5,20.9 8.2,20.3 8.8,19.6 C9.2,19.2 10.1,18.5 10,17.9 C9.7,18.1 8.7,19 8.5,19.1 C8.5,19.1 9.5,17.9 9.7,17.7 C10,17.4 11.3,16.3 11.6,16 C11.7,15.8 12.1,15.4 12.2,15.2 C11.9,15.2 9.3424838,17.3999996 9.0424838,17.6999996 C8.7424838,17.9999996 6.8,20.2 6.1,20.8 C5.6,21.3 5.0999999,22.1445858 4.5999999,22.2445858 C5.2999999,20.8445858 11.4,15.4 11.6,15.1 C11.9,14.8 12.3,14.5 12.7,14.3 C13.1,14 13.4,13.7 13.8,13.5 C14.6,13 15.5,12.6 16.3,12.1 C17.1,11.6 18,11.3 18.8,10.8 C19.5,10.3 23.1,8.7 23.5,8.5 C24,8.3 25.7,8 25.8,7.4 C25.6,7.6 25.3,7.7 25,7.8 C25,7.8 21.1,9.3 20.3,9.7 L20.3,9.7 Z" id="mancha" fill="#EC6608" sketch:type="MSShapeGroup"></path>
            <path d="M13.5,32.2 C12.9,31.6 12.4,31.2 11.8,30.8 C11.4,30.6 11.2,30.4 11.1,30.4 C10.9,30.4 10.6,30.5 10.2,30.7 C9.5,31.1 8.9,31.5 8.2,32.2 C7.9,31.5 7.7,31.1 7.4,30.5 C6,30.9 5,31.3 3.9,32.1 L3.9,32.3 C4.1,33.6 4.2,33.9 4.2,34.9 L4.2,35.7 L4.2,38.4 L4.2,40.4 L4.1,42.5 L6.3,42.3 L8.6,42.3 L8.5,41.4 L8.4,39.6 L8.3,37.9 L8.3,36.5 L8.3,34.9 C8.5,34.5 8.7,34.3 9,34 C9.3,34.4 9.3,34.5 9.5,34.9 C9.5,34.9 9.6,35 9.6,35.1 L9.7,37.1 L9.7,38.7 L9.6,40.8 L9.5,42.4 L12.3,42.3 L14,42.3 C13.9,41.9 13.9,41.8 13.9,41.3 L13.8,40.5 L13.8,40.1 L13.7,37.7 L13.7,35.8 L13.7,35.6 C13.7,35.2 13.7,35.1 13.9,34.9 C14.1,34.6 14.2,34.4 14.5,34.1 C14.9,34.6 15.1,35.1 15.1,35.4 C15.1,35.6 15.1,35.9 15,36.3 C15,36.6 14.9,37.6 14.9,38.3 C14.9,40.1 15.1,41.4 15.5,42.9 C17,42.5 18.4,41.7 19.7,40.7 C19.5,40 19.4,39.5 19.3,38.8 C19.2,38 19,36.6 19,36.1 L19,34.5 L19,33.3 C18.8,32.7 18.6,32.5 18.4,32.1 C18,31.5 18,31.4 17.6,31.3 L16.9,30.9 L16.2,30.6 C16.1,30.5 16,30.5 16,30.5 C15.9,30.5 15.8,30.6 15.5,30.7 L14.9,31.1 C14.5,31.3 13.9,31.8 13.5,32.2 L13.5,32.2 L13.5,32.2 Z" id="m" stroke="#000000" fill="#FCBF00" sketch:type="MSShapeGroup"></path>
            <path d="M23.5,40.2 C23.5,40.1 23.5,40 23.4,40 L23.1,38.9 C23,38.6 23,38.4 23,38.3 C23,38.2 23,38.1 23.1,37.9 L23.2,37.4 L23.4,36.5 C23.5,36 23.5,36 23.9,35.8 L24.4,35.4 C24.5,35.3 24.5,35.3 24.6,35.3 L24.6,36.2 L24.6,38.3 L24.6,39.7 C24.6,40.1 24.6,40.2 24.4,40.3 C24.2,40.5 24,40.6 24,40.6 C24,40.6 23.7,40.4 23.5,40.2 L23.5,40.2 L23.5,40.2 Z M29,42.5 L29,42.3 C28.9,41.3 28.8,41 28.8,40.3 L28.8,39.7 L28.8,38.7 L28.8,37.3 C28.8,35.8 28.7,34.6 28.6,33.8 L28.5,33.1 C28.5,32.8 28.4,32.7 28.2,32.5 L27.9,32.2 C27.1,31.5 26.7,31.1 26.1,30.8 C25.3,30.3 25.1,30.3 24.9,30.3 C23.7,30.3 22.3,30.7 21.1,31.4 C20.9,31.5 20.8,31.6 20.8,31.6 C20.6,31.7 20.5,31.8 20.5,31.8 L20.4,31.9 C20.8,32.8 21.1,33.3 21.5,33.9 C22.3,32.9 23.1,32.2 23.9,31.7 C24.4,32.2 24.6,32.8 24.8,33.7 L23.4,33.9 L22.6,34.1 L22.2,34.2 L21.8,34.3 C21.6,34.4 21.4,34.5 21.1,34.6 L20.9,34.7 C20.8,34.8 20.8,34.9 20.7,35 L20.5,35.3 C20.3,35.6 20.1,35.9 19.9,36.3 C19.6,36.8 19.6,37 19.5,37.3 C19.4,38 19.3,38.7 19.3,39.7 C19.6,40.4 20.1,41.3 20.7,42.1 C21.7,42.7 22.5,43 23.1,43 L24.1,42.3 C24.4,42.1 24.7,41.9 25.1,41.7 L25.5,42.5 L26,42.4 L27.6,42.4 L29,42.5 L29,42.5 Z" id="a" stroke="#000000" fill="#FCBF00" sketch:type="MSShapeGroup"></path>
            <path d="M34.4,33.4 C34.7,33.5 34.8,33.6 35,33.9 C35.3,34.3 35.3,34.3 35.3,34.4 L35.3,37.7 L35.2,39.5 C34.8,40.3 34.7,40.4 34.4,40.7 C34.3,40.6 34.3,40.6 34.3,40.5 L34,40.1 C33.7,39.6 33.7,39.8 33.6,38.6 C33.5,37.9 33.5,37.4 33.5,36.2 C33.5,35.7 33.5,35.5 33.7,34.9 C33.9,34.4 34.1,34 34.4,33.4 L34.4,33.4 L34.4,33.4 Z M39.2,21.9 C39.1,21.9 39,21.9 38.8,22 L38.5,22.1 C38.1,22.2 37.3,22.5 36.8,22.8 C36.3,23 35.9,23.3 35.3,23.7 L35.1,23.8 C35.3,24.6 35.4,29.7 35.4,30.1 L35.4,31.9 C34.8,31.4 34.3,31.1 33.5,30.8 L33.3,30.7 C32.6,30.9 32.1,31.1 31.5,31.5 L31.2,31.7 C30.9,31.9 30.8,31.9 30.8,32.1 C30.5,32.5 30,33.6 29.7,34.3 C29.6,34.5 29.6,34.6 29.6,34.6 C29.5,34.9 29.4,35 29.4,35.2 C29.3,35.8 29.2,36.6 29.2,37.2 C29.2,37.6 29.2,38 29.3,38.6 L29.4,39.4 L29.4,39.6 C29.4,39.8 29.4,39.8 29.5,40 L29.8,40.5 C30.1,41.1 31.2,42.2 31.8,42.8 L32.5,43.4 C33.5,43.3 34.4,42.9 35.7,41.8 C35.8,41.9 35.9,42 35.9,42 C36,42.1 36.1,42.2 36.2,42.3 L36.5,42.6 L36.6,42.7 L38.1,42.7 L39.8,42.8 L39.7,42.3 L39.5,40.6 L39.4,38.5 L39.4,31.8 L39.4,30.3 L39.4,24.4 C39.4,24.3 39.4,25.3 39.4,23.7 L39.4,23 C39.3,22.6 39.3,22.4 39.2,21.9 L39.2,21.9 L39.2,21.9 Z" id="d" stroke="#000000" fill="#FCBF00" sketch:type="MSShapeGroup"></path>
            <path d="M61.7,21.5 C59.8,22 58.8,22.5 57.6,23.4 C57.7,24.2 57.8,30 57.8,30.5 L57.8,34.6 L57.7,40 L57.6,42.6 C58.7,42.5 59.6,42.5 60.1,42.5 L60.9,42.5 L62.1,42.5 L62,41.5 L61.9,39.8 L61.8,37.2 L61.8,24 L61.7,22.4 L61.7,21.5 L61.7,21.5 Z" id="l" stroke="#000000" fill="#FCBF00" sketch:type="MSShapeGroup"></path>
            <path d="M44.7,32.1 C45,32.5 45.2,32.8 45.5,33.5 C45.5,34.5 45.5,34.9 45.4,35.7 L45.1,35.8 L43.9,36.4 C43.9,35.9 43.8,35.6 43.8,34.9 L43.8,34.3 L43.8,33.8 C43.8,33.5 43.8,33.4 43.9,33.1 L44,32.9 L44.3,32.4 L44.4,32.2 L44.7,32.1 L44.7,32.1 Z M49.3,36.5 C49.3,36.1 49.3,36.1 49.2,35.7 C49.1,35.1 49,34.3 48.9,33.9 C48.6,32.8 48.7,32.8 48,32.2 C47.1,31.5 46,30.9 44.2,30.3 C43.1,30.8 41.4,31.8 40.8,32.5 L40.5,32.8 C40.2,33.1 40.2,33.1 40.1,33.5 L39.9,34.3 C39.7,35 39.6,36.3 39.6,37.5 C39.6,37.9 39.6,38 39.8,38.5 C40,39 40.4,39.8 40.6,40.2 L41,40.8 C41.3,41.3 41.3,41.3 42.4,41.9 C43.4,42.5 44.3,42.9 44.6,42.9 C44.8,42.9 45.5,42.7 46.2,42.4 C47.1,42 47.8,41.6 48.6,41.1 C48.3,40 48.1,39.3 47.7,38.7 L46.8,39.6 L45.8,40.5 L45.7,40.5 L45.5,40.5 C45.2,40.5 45,40.3 44.8,39.8 C44.4,39.1 44.3,38.6 44.1,37.9 L44.6,37.7 L45.7,37.3 L46.9,36.9 L48.2,36.6 L49.3,36.5 L49.3,36.5 Z" id="e" stroke="#000000" fill="#FCBF00" sketch:type="MSShapeGroup"></path>
            <path d="M53,30.6 C52.7,30.6 52.6,30.7 52.4,30.7 C52.3,30.7 52.2,30.8 52.2,30.8 C52.1,30.8 52,30.9 51.9,30.9 L50.5,31.4 L49.1,32.1 C49.4,32.8 49.4,33.1 49.4,34.1 L49.4,35 L49.4,37.5 L49.4,40.5 L49.3,42.5 L51.3,42.4 L53.6,42.5 L53.5,40.6 L53.5,39 L53.5,36.6 L53.6,34.7 C53.9,34.4 54.2,34.2 54.5,34 C54.7,34.1 54.8,34.1 55.1,34.2 C55.7,34.4 55.8,34.6 56,34.7 C56.5,33.9 57.1,32.6 57.3,31.9 L57.4,31.7 C56.9,31.3 56.3,31 55.7,30.8 L55.5,30.9 L55,31.3 C54.8,31.4 54.7,31.6 54.6,31.7 L53.7,32.6 C53.5,31.6 53.3,31.1 53,30.6 L53,30.6 L53,30.6 Z" id="r" stroke="#000000" fill="#FCBF00" sketch:type="MSShapeGroup"></path>
            <path d="M64.4,24.2 C63.6,24.7 62.8,25.5 62.2,26.2 C62.7,26.6 62.9,26.9 63.3,27.1 C63.8,27.4 64.4,27.8 64.5,27.8 C64.6,27.8 64.9,27.6 65.2,27.3 L65.9,26.7 C66,26.6 66.1,26.5 66.1,26.5 L66.6,26 C65.9,25.2 65.5,24.8 64.4,24.2 L64.4,24.2 L64.4,24.2 Z" id="i" stroke="#000000" fill="#FCBF00" sketch:type="MSShapeGroup"></path>
            <path d="M66.7,30.2 C65.8,30.5 65.3,30.7 64.6,31 C63.6,31.4 63.2,31.7 62.5,32.3 C62.8,33.1 62.8,33.5 62.8,34.7 L62.8,37.6 L62.8,38.9 L62.7,42.5 L65,42.4 L66.6,42.4 L67,42.5 L66.9,40.3 L66.8,38.3 L66.8,35.9 L66.8,33.7 L66.8,32 L66.7,30.2 L66.7,30.2 Z" id="i" stroke="#000000" fill="#FCBF00" sketch:type="MSShapeGroup"></path>
            <path d="M77.3,32.2 C76.7,31.6 76.2,31.2 75.6,30.8 C75.2,30.6 75,30.4 74.9,30.4 C74.7,30.4 74.4,30.5 74,30.7 C73.3,31.1 72.7,31.5 72,32.2 C71.7,31.5 71.5,31.1 71.2,30.5 C69.8,30.9 68.8,31.3 67.7,32.1 L67.7,32.3 C67.9,33.6 68,33.9 68,34.9 L68,35.7 L68,38.4 L68,40.4 L67.9,42.5 L70.1,42.3 L72.4,42.3 L72.3,41.4 L72.2,39.6 L72.1,37.9 L72.1,36.5 L72.1,34.9 C72.3,34.5 72.5,34.3 72.8,34 C73.1,34.4 73.1,34.5 73.3,34.9 C73.3,34.9 73.4,35 73.4,35.1 L73.5,37.1 L73.5,38.7 L73.4,40.8 L73.3,42.4 L76.1,42.3 L77.8,42.3 C77.7,41.9 77.7,41.8 77.7,41.3 L77.6,40.5 L77.6,40.1 L77.5,37.7 L77.5,35.8 L77.5,35.6 C77.5,35.2 77.5,35.1 77.7,34.9 C77.9,34.6 78,34.4 78.3,34.1 C78.7,34.6 78.9,35.1 78.9,35.4 C78.9,35.6 78.9,35.9 78.8,36.3 C78.8,36.6 78.7,37.6 78.7,38.3 C78.7,40.1 78.9,41.4 79.3,42.9 C80.8,42.5 82.2,41.7 83.5,40.7 C83.3,40 83.2,39.5 83.1,38.8 C83,38 82.8,36.6 82.8,36.1 L82.8,34.5 L82.8,33.3 C82.6,32.7 82.4,32.5 82.2,32.1 C81.8,31.5 81.8,31.4 81.4,31.3 L80.7,30.9 L80,30.6 C79.9,30.5 79.8,30.5 79.8,30.5 C79.7,30.5 79.6,30.6 79.3,30.7 L78.7,31.1 C78.3,31.3 77.7,31.8 77.3,32.2 L77.3,32.2 L77.3,32.2 Z" id="m" stroke="#000000" fill="#FCBF00" sketch:type="MSShapeGroup"></path>
        </g>
    </g>
</svg>
